<?xml version="1.0" encoding="utf-8"?><svg viewBox="0 0 32 32" xmlns="http://www.w3.org/2000/svg" xmlns:xlink="http://www.w3.org/1999/xlink"><style>:root>svg{display:none}:root>svg:target{display:block}</style><svg viewBox="0 0 32 32" id="arrow" xmlns="http://www.w3.org/2000/svg"><path fill-rule="evenodd" clip-rule="evenodd" d="M16.943 7.61a1.333 1.333 0 00-1.886-1.886l-9.333 9.333c-.52.52-.52 1.365 0 1.886l9.333 9.333a1.333 1.333 0 101.886-1.885l-7.057-7.058h15.447a1.333 1.333 0 000-2.666H9.886l7.057-7.057z"/></svg><svg viewBox="0 0 24 24" id="eye" xmlns="http://www.w3.org/2000/svg"><path d="M10.743 5.092C11.149 5.032 11.569 5 12 5c5.105 0 8.455 4.505 9.58 6.287.137.215.205.323.243.49a1.16 1.16 0 010 .447c-.038.166-.107.274-.244.492-.3.474-.757 1.141-1.363 1.865M6.724 6.715c-2.162 1.467-3.63 3.504-4.303 4.57-.137.217-.205.325-.243.492a1.173 1.173 0 000 .446c.038.167.106.274.242.49C3.546 14.495 6.895 19 12 19c2.059 0 3.832-.732 5.289-1.723M3 3l18 18M9.88 9.879a3 3 0 104.243 4.243"/></svg></svg>